<svg width="7.000000" height="10.000000" viewBox="0 0 7 10" fill="none" xmlns="http://www.w3.org/2000/svg" xmlns:xlink="http://www.w3.org/1999/xlink">
	<desc>
			Created with Pixso.
	</desc>
	<defs/>
	<path id="icon" d="M3 2L5.5 -0.5C5.77612 -0.776123 6.22388 -0.776123 6.5 -0.5C6.77612 -0.223877 6.77612 0.223877 6.5 0.5L3.70728 3.29297C3.31665 3.68359 2.68359 3.68359 2.29297 3.29297L-0.5 0.5C-0.776123 0.223877 -0.776123 -0.223877 -0.5 -0.5C-0.223877 -0.776123 0.223877 -0.776123 0.5 -0.5L3 2ZM5.5 5.5L3 8L0.5 5.5C0.223877 5.22388 -0.223877 5.22388 -0.5 5.5C-0.776123 5.77612 -0.776123 6.22388 -0.5 6.5L2.29297 9.29297C2.68359 9.68359 3.31665 9.68359 3.70728 9.29297L6.5 6.5C6.77612 6.22388 6.77612 5.77612 6.5 5.5C6.22388 5.22388 5.77612 5.22388 5.5 5.5Z" clip-rule="evenodd" fill="#41F6D7" fill-opacity="1.000000" fill-rule="evenodd"/>
</svg>
